<?xml version="1.0" encoding="utf-8"?>
<!-- Generator: Adobe Illustrator 27.5.0, SVG Export Plug-In . SVG Version: 6.00 Build 0)  -->
<svg version="1.1" xmlns="http://www.w3.org/2000/svg" xmlns:xlink="http://www.w3.org/1999/xlink" x="0px" y="0px"
	 viewBox="0 0 750 500" style="enable-background:new 0 0 750 500;" xml:space="preserve">
<g id="Background_Simple">
	<g>
		<path style="fill:#92E3A9;" d="M697.924,156.023c-9.584-20.397-22.41-39.003-39.125-54.533
			c-57.48-53.402-155.05-62.148-236.057-39.748c-23.952,6.623-47.393,16.502-68.371,30.725
			c-15.25,10.34-28.897,22.829-44.115,33.212c-15.991,10.911-33.483,10.407-51.053,8.679c-25.296-2.487-50.433-5.702-75.366-9.641
			c-21.727-3.432-41.912-8.387-64.793-3.365c-38.652,8.484-73.086,38.709-90.146,73.515c-21.426,43.712-19.602,92.961-6.876,136.148
			c4.406,14.953,10.236,29.615,11.217,45.539c1.019,16.547,5.712,33.613,16.267,46.334c12.277,14.794,34.242,20.73,53.33,25.245
			c37.01,8.754,76.904,6.531,115.824-0.752c36.663-6.861,75.078-19.821,112.303-18.452c41.761,1.536,78.734,19.921,118.514,29.227
			c35.605,8.329,73.628,9.618,111.383,4.809c34.266-4.365,72.107-11.959,100.511-35.241
			c75.047-61.513,70.705-170.411,46.879-244.888C705.315,173.665,701.991,164.679,697.924,156.023z"/>
		<path style="opacity:0.7;fill:#FFFFFF;" d="M697.924,156.023c-9.584-20.397-22.41-39.003-39.125-54.533
			c-57.48-53.402-155.05-62.148-236.057-39.748c-23.952,6.623-47.393,16.502-68.371,30.725
			c-15.25,10.34-28.897,22.829-44.115,33.212c-15.991,10.911-33.483,10.407-51.053,8.679c-25.296-2.487-50.433-5.702-75.366-9.641
			c-21.727-3.432-41.912-8.387-64.793-3.365c-38.652,8.484-73.086,38.709-90.146,73.515c-21.426,43.712-19.602,92.961-6.876,136.148
			c4.406,14.953,10.236,29.615,11.217,45.539c1.019,16.547,5.712,33.613,16.267,46.334c12.277,14.794,34.242,20.73,53.33,25.245
			c37.01,8.754,76.904,6.531,115.824-0.752c36.663-6.861,75.078-19.821,112.303-18.452c41.761,1.536,78.734,19.921,118.514,29.227
			c35.605,8.329,73.628,9.618,111.383,4.809c34.266-4.365,72.107-11.959,100.511-35.241
			c75.047-61.513,70.705-170.411,46.879-244.888C705.315,173.665,701.991,164.679,697.924,156.023z"/>
	</g>
</g>
<g id="Lamps">
	<g>
		<path style="fill:#FFFFFF;stroke:#263238;stroke-linecap:round;stroke-linejoin:round;stroke-miterlimit:10;" d="M228.149,87.018
			h-44.427V72.323c0-12.268,9.945-22.213,22.213-22.213h0c12.268,0,22.213,9.945,22.213,22.213V87.018z"/>
		
			<line style="fill:none;stroke:#263238;stroke-linecap:round;stroke-linejoin:round;stroke-miterlimit:10;" x1="205.936" y1="50.11" x2="205.936" y2="25.504"/>
	</g>
	<g>
		<path style="fill:#FFFFFF;stroke:#263238;stroke-linecap:round;stroke-linejoin:round;stroke-miterlimit:10;" d="M550.071,87.018
			h-44.427V72.323c0-12.268,9.945-22.213,22.213-22.213h0c12.268,0,22.213,9.945,22.213,22.213V87.018z"/>
		
			<line style="fill:none;stroke:#263238;stroke-linecap:round;stroke-linejoin:round;stroke-miterlimit:10;" x1="527.858" y1="50.11" x2="527.858" y2="25.504"/>
	</g>
</g>
<g id="Picture">
	<g>
		
			<rect x="567.709" y="82.61" style="fill:#FFFFFF;stroke:#263238;stroke-linecap:round;stroke-linejoin:round;stroke-miterlimit:10;" width="123.824" height="151.34"/>
		
			<rect x="567.712" y="82.614" style="fill:#FFFFFF;stroke:#263238;stroke-linecap:round;stroke-linejoin:round;stroke-miterlimit:10;" width="123.82" height="151.34"/>
		<path style="fill:#FFFFFF;stroke:#263238;stroke-linecap:round;stroke-linejoin:round;stroke-miterlimit:10;" d="M691.532,82.614
			v58.54c-7.03,6.96-15.69,13.48-25.95,17.63c-32.12,12.99-73.82-1.37-49.9-47.16c6.06-11.59,10.41-21.17,13.53-29.01H691.532z"/>
		<path style="fill:#FFFFFF;stroke:#263238;stroke-linecap:round;stroke-linejoin:round;stroke-miterlimit:10;" d="M691.532,178.314
			v55.64h-10.4c-14.88-5.11-31.15-13.08-33.32-23.91C644.852,195.224,674.742,183.614,691.532,178.314z"/>
		<path style="fill:#FFFFFF;stroke:#263238;stroke-linecap:round;stroke-linejoin:round;stroke-miterlimit:10;" d="M618.922,233.954
			h-51.21v-23.42c21.55-20.91,54.18-48.61,59.59-30.56C633.502,200.624,620.592,221.654,618.922,233.954z"/>
		<path style="fill:#FFFFFF;stroke:#263238;stroke-linecap:round;stroke-linejoin:round;stroke-miterlimit:10;" d="M601.332,137.594
			c0,9.16-18.33,15.06-33.62,18.4v-53.96C580.392,110.684,601.332,126.634,601.332,137.594z"/>
		
			<ellipse style="fill:#FFFFFF;stroke:#263238;stroke-linecap:round;stroke-linejoin:round;stroke-miterlimit:10;" cx="645.418" cy="129.052" rx="17.429" ry="16.062"/>
		<path style="fill:#FFFFFF;stroke:#263238;stroke-linecap:round;stroke-linejoin:round;stroke-miterlimit:10;" d="M599.966,169.036
			c0,3.02-2.754,5.468-6.151,5.468c-3.397,0-6.151-2.448-6.151-5.468c0-3.02,2.754-5.468,6.151-5.468
			C597.212,163.568,599.966,166.017,599.966,169.036z"/>
		<path style="fill:#FFFFFF;stroke:#263238;stroke-linecap:round;stroke-linejoin:round;stroke-miterlimit:10;" d="M653.961,185.44
			c0,4.152-3.366,7.518-7.518,7.518s-7.518-3.366-7.518-7.518c0-4.152,3.366-7.518,7.518-7.518S653.961,181.288,653.961,185.44z"/>
		<path style="fill:#FFFFFF;stroke:#263238;stroke-linecap:round;stroke-linejoin:round;stroke-miterlimit:10;" d="M669.681,206.628
			c0,1.51-1.224,2.734-2.734,2.734s-2.734-1.224-2.734-2.734c0-1.51,1.224-2.734,2.734-2.734S669.681,205.118,669.681,206.628z"/>
		
			<ellipse transform="matrix(0.7071 -0.7071 0.7071 0.7071 106.1991 463.2308)" style="fill:#FFFFFF;stroke:#263238;stroke-linecap:round;stroke-linejoin:round;stroke-miterlimit:10;" cx="612.269" cy="103.422" rx="12.986" ry="12.986"/>
	</g>
</g>
<g id="Plant">
	<g>
		<g>
			<ellipse style="fill:#92E3A9;stroke:#263238;stroke-miterlimit:10;" cx="651.143" cy="290.069" rx="10.146" ry="26.612"/>
			<path style="fill:#92E3A9;stroke:#263238;stroke-miterlimit:10;" d="M619.619,273.658c3.172,9.983,9.265,16.956,13.61,15.576
				c4.345-1.38,5.296-10.592,2.124-20.574c-3.172-9.983-9.265-16.956-13.61-15.576C617.398,254.463,616.447,263.675,619.619,273.658
				z"/>
			<path style="fill:#92E3A9;stroke:#263238;stroke-miterlimit:10;" d="M694.065,333.852c10.327-1.749,18.082-6.811,17.32-11.306
				c-0.761-4.495-9.751-6.72-20.078-4.97c-10.327,1.749-18.082,6.811-17.32,11.306C674.749,333.376,683.738,335.601,694.065,333.852
				z"/>
			<path style="fill:#92E3A9;stroke:#263238;stroke-miterlimit:10;" d="M610.067,309.249c8.626,8.554,18.817,12.264,22.763,8.285
				c3.946-3.979,0.152-14.139-8.474-22.693c-8.626-8.555-18.817-12.264-22.763-8.285
				C597.648,290.534,601.441,300.694,610.067,309.249z"/>
			<path style="fill:#92E3A9;stroke:#263238;stroke-miterlimit:10;" d="M669.504,285.784c-8.341,12.102-10.826,24.859-5.551,28.495
				c5.275,3.636,16.313-3.227,24.654-15.329c8.341-12.102,10.826-24.859,5.551-28.495
				C688.883,266.82,677.845,273.683,669.504,285.784z"/>
			
				<line style="fill:none;stroke:#263238;stroke-linecap:round;stroke-miterlimit:10;" x1="650.431" y1="315.354" x2="649.646" y2="396.311"/>
			
				<line style="fill:none;stroke:#263238;stroke-linecap:round;stroke-miterlimit:10;" x1="651.377" y1="280.174" x2="650.431" y2="315.354"/>
			
				<line style="fill:none;stroke:#263238;stroke-linecap:round;stroke-miterlimit:10;" x1="651.309" y1="274.435" x2="651.377" y2="277.13"/>
			<path style="fill:none;stroke:#263238;stroke-linecap:round;stroke-miterlimit:10;" d="M663.991,312.551
				c-5.086,10.681-9.221,23.655-10.021,38.394v50.072"/>
			<path style="fill:none;stroke:#263238;stroke-linecap:round;stroke-miterlimit:10;" d="M681.419,285.888
				c-4.73,5.46-11.685,14.6-17.428,26.664"/>
			<path style="fill:none;stroke:#263238;stroke-linecap:round;stroke-miterlimit:10;" d="M686.903,280.09
				c0,0-1.052,0.961-2.781,2.799"/>
			<path style="fill:none;stroke:#263238;stroke-linecap:round;stroke-miterlimit:10;" d="M632.199,316.308
				c5.919,8.181,11.864,18.89,16.448,32.642"/>
			<path style="fill:none;stroke:#263238;stroke-linecap:round;stroke-miterlimit:10;" d="M620.527,302.895
				c3.582,3.398,7.622,7.814,11.672,13.413"/>
			<path style="fill:none;stroke:#263238;stroke-linecap:round;stroke-miterlimit:10;" d="M608.064,293.396
				c0,0,3.619,1.855,8.888,6.298"/>
			<path style="fill:none;stroke:#263238;stroke-linecap:round;stroke-miterlimit:10;" d="M632.627,286.76
				c5.62,17.688,13.166,43.826,16.686,66.514"/>
			<path style="fill:none;stroke:#263238;stroke-linecap:round;stroke-miterlimit:10;" d="M629.202,276.267
				c1,2.983,2.164,6.525,3.424,10.492"/>
			<path style="fill:none;stroke:#263238;stroke-linecap:round;stroke-miterlimit:10;" d="M625.694,266.118
				c0,0,0.983,2.707,2.563,7.352"/>
			<path style="fill:none;stroke:#263238;stroke-linecap:round;stroke-miterlimit:10;" d="M674.507,326.43
				c-7.022,2.663-16.625,10.091-19.957,19.82"/>
			<path style="fill:none;stroke:#263238;stroke-linecap:round;stroke-miterlimit:10;" d="M687.479,323.793
				c-3.78,0.222-8.411,0.908-12.972,2.637"/>
			<path style="fill:none;stroke:#263238;stroke-linecap:round;stroke-miterlimit:10;" d="M695.885,324c0,0-1.25-0.179-3.312-0.259"
				/>
			<path style="fill:#92E3A9;stroke:#263238;stroke-miterlimit:10;" d="M673.807,372.765c9.491,4.432,18.748,4.676,20.677,0.545
				c1.929-4.13-4.201-11.072-13.692-15.503c-9.491-4.431-18.748-4.675-20.677-0.545
				C658.186,361.393,664.316,368.334,673.807,372.765z"/>
			<path style="fill:none;stroke:#263238;stroke-linecap:round;stroke-miterlimit:10;" d="M674.107,360.746
				c-3.236-1.966-7.436-4.034-12.172-5.204c0,0-3.172-2.117-6.531,0.122c-1.284,0.856-0.856,7.274-0.856,7.274v33.374"/>
			<path style="fill:none;stroke:#263238;stroke-linecap:round;stroke-miterlimit:10;" d="M680.905,365.695
				c0,0-0.927-0.857-2.577-2.096"/>
			<path style="fill:#92E3A9;stroke:#263238;stroke-miterlimit:10;" d="M605.687,333.852c-10.327-1.749-18.082-6.811-17.32-11.306
				c0.761-4.495,9.751-6.72,20.078-4.97c10.327,1.749,18.082,6.811,17.32,11.306C625.003,333.376,616.014,335.601,605.687,333.852z"
				/>
			<path style="fill:none;stroke:#263238;stroke-linecap:round;stroke-miterlimit:10;" d="M625.022,326.347
				c1.237,0.46,2.47,0.996,3.68,1.619c8.534,4.395,13.752,13.347,13.752,22.946v44.116"/>
			<path style="fill:none;stroke:#263238;stroke-linecap:round;stroke-miterlimit:10;" d="M611.186,323.74
				c3.899,0.148,8.9,0.772,13.836,2.607"/>
			<path style="fill:none;stroke:#263238;stroke-linecap:round;stroke-miterlimit:10;" d="M603.867,324c0,0,0.824-0.118,2.236-0.205
				"/>
			<path style="fill:#92E3A9;stroke:#263238;stroke-miterlimit:10;" d="M616.055,364.071c-9.075,5.231-18.277,6.269-20.553,2.319
				c-2.276-3.95,3.235-11.392,12.31-16.622c9.075-5.23,18.277-6.269,20.553-2.319C630.641,351.399,625.13,358.841,616.055,364.071z"
				/>
			<path style="fill:none;stroke:#263238;stroke-linecap:round;stroke-miterlimit:10;" d="M613.852,352.774
				c3.1-2.37,7.352-5.075,12.326-6.806c0,0,11.257-1.857,13.825,5.417"/>
			<path style="fill:none;stroke:#263238;stroke-linecap:round;stroke-miterlimit:10;" d="M608.376,357.637
				c0,0,0.56-0.615,1.593-1.583"/>
			<path style="fill:#92E3A9;stroke:#263238;stroke-miterlimit:10;" d="M638.291,351.813c0,0,13.264-2.567,13.264,6.418
				c0,8.985-9.413,16.259-13.264,26.528c-3.851,10.269-11.125,10.697-14.976,0.428C619.464,374.918,625.027,356.091,638.291,351.813
				z"/>
			<path style="fill:#92E3A9;stroke:#263238;stroke-miterlimit:10;" d="M647.276,352.241c0,0-11.552,4.707-14.975,19.682"/>
			
				<line style="fill:none;stroke:#263238;stroke-linecap:round;stroke-miterlimit:10;" x1="646.42" y1="371.923" x2="646.42" y2="396.311"/>
		</g>
		<g>
			<path style="fill:#263238;" d="M625.17,443.805c-3.03-9.448-4.798-20.356-4.798-31.218c0-6.729,0.684-13.16,1.919-19.088h54.043
				c1.235,5.928,1.919,12.36,1.919,19.088c0,10.862-1.769,21.771-4.799,31.218H625.17z"/>
			<g>
				<path style="fill:#7A7A7A;" d="M677.721,402.423c0.155,1.466,0.274,2.956,0.362,4.462h-57.539
					c0.088-1.507,0.207-2.996,0.362-4.462H677.721z"/>
				<path style="fill:#7A7A7A;" d="M621.156,425.229c-0.18-1.479-0.337-2.966-0.456-4.462h57.226
					c-0.119,1.496-0.276,2.983-0.456,4.462H621.156z"/>
			</g>
			<path style="fill:#8C8C8C;" d="M671.268,412.835c0,1.242,1.043,2.248,2.329,2.248c1.286,0,2.329-1.006,2.329-2.248
				c0-1.242-1.042-2.248-2.329-2.248C672.311,410.586,671.268,411.593,671.268,412.835z"/>
			<path style="fill:#8C8C8C;" d="M659.625,412.835c0,1.242,1.043,2.248,2.329,2.248c1.286,0,2.329-1.006,2.329-2.248
				c0-1.242-1.043-2.248-2.329-2.248C660.668,410.586,659.625,411.593,659.625,412.835z"/>
			<path style="fill:#8C8C8C;" d="M647.982,412.835c0,1.242,1.043,2.248,2.329,2.248c1.286,0,2.329-1.006,2.329-2.248
				c0-1.242-1.043-2.248-2.329-2.248C649.025,410.586,647.982,411.593,647.982,412.835z"/>
			<path style="fill:#8C8C8C;" d="M636.339,412.835c0,1.242,1.043,2.248,2.329,2.248c1.286,0,2.329-1.006,2.329-2.248
				c0-1.242-1.043-2.248-2.329-2.248C637.382,410.586,636.339,411.593,636.339,412.835z"/>
			<path style="fill:#8C8C8C;" d="M624.696,412.835c0,1.242,1.042,2.248,2.329,2.248c1.286,0,2.329-1.006,2.329-2.248
				c0-1.242-1.042-2.248-2.329-2.248C625.739,410.586,624.696,411.593,624.696,412.835z"/>
		</g>
	</g>
</g>
<g id="Character_3">
	<g>
		<g>
			<path style="fill:#FFFFFF;stroke:#263238;stroke-linecap:round;stroke-linejoin:round;stroke-miterlimit:10;" d="
				M531.365,220.922l-1.789-6.163c0,0-0.596-5.169-1.59-6.362c-0.994-1.193-4.771-3.181-6.163-4.572s-2.584-1.392-2.783-0.199
				c-0.199,1.193,0.199,2.982,0.795,3.38s2.584,2.187,2.584,2.187s-4.432-2.775-5.625-3.769c-1.193-0.994-5.508-3.189-6.104-2.394
				c-0.596,0.795,0.199,2.584,0.199,2.584s-2.582-0.565-2.582,1.224c0,1.789,1.197,2.394,1.197,2.394s-1.703,0.567-1.306,1.959
				c0.398,1.392,2.72,2.503,2.72,2.503s-2.281,0.368-1.088,1.959c1.193,1.59,6.227,4.872,8.812,6.065
				c2.584,1.193,5.765,2.187,5.765,2.187l6.362,4.572L531.365,220.922z"/>
			<path style="fill:none;stroke:#263238;stroke-linecap:round;stroke-linejoin:round;stroke-miterlimit:10;" d="M510.888,205.615
				c0,0,3.777,2.783,4.572,3.578c0.795,0.795,2.966,1.998,2.966,1.998"/>
			<polyline style="fill:none;stroke:#263238;stroke-linecap:round;stroke-linejoin:round;stroke-miterlimit:10;" points="
				509.624,209.407 515.986,213.184 516.903,213.803 			"/>
			
				<line style="fill:none;stroke:#263238;stroke-linecap:round;stroke-linejoin:round;stroke-miterlimit:10;" x1="522.419" y1="209.193" x2="523.214" y2="212.573"/>
		</g>
		<polygon style="fill:#92E3A9;stroke:#263238;stroke-linecap:round;stroke-linejoin:round;stroke-miterlimit:10;" points="
			548.462,230.266 531.365,220.922 528.383,229.073 546.076,245.176 		"/>
		<path style="fill:#92E3A9;stroke:#263238;stroke-linecap:round;stroke-linejoin:round;stroke-miterlimit:10;" d="M561.454,189.424
			c0,0-15.089,15.486-16.479,24.222c-1.39,8.736-2.184,53.605-2.184,53.605s10.523,1.787,11.515,1.787s6.353,0,6.353,0
			s-2.581-39.906-0.794-53.605s8.339-26.009,8.339-26.009S565.425,188.233,561.454,189.424z"/>
		<path style="fill:#263238;stroke:#263238;stroke-linecap:round;stroke-linejoin:round;stroke-miterlimit:10;" d="M550.435,264.522
			l1.002,26.722c0,0-6.012,19.039-1.67,39.749c4.342,20.709,4.676,37.745,4.676,37.745s2.004,14.697,2.004,21.711
			s-2.338,35.073-2.338,35.073s-2.338,3.34-5.01,6.68c-2.672,3.34-9.353,5.344-10.355,8.017c-1.002,2.672,4.008,1.67,8.017,1.67
			c4.008,0,11.023-1.67,13.027-2.672c2.004-1.002,6.346-0.334,7.349-1.002c1.002-0.668,2.338-4.676,2.004-7.683
			c-0.334-3.006,2.672-29.394,4.676-39.749c2.004-10.355-1.002-30.396-1.002-30.396s6.013-54.112,6.346-57.452
			c0.334-3.34,4.008-18.705,3.34-24.384c-0.668-5.678-1.336-14.697-1.336-16.033C581.166,261.182,550.435,264.522,550.435,264.522z"
			/>
		<path style="fill:#263238;stroke:#263238;stroke-linecap:round;stroke-linejoin:round;stroke-miterlimit:10;" d="M565.466,295.252
			c0,0-3.34,34.405-2.004,50.438c1.336,16.033,3.674,34.07,5.344,38.413c1.67,4.342,3.674,27.056,3.674,33.402
			c0,6.346,0.334,17.035,0.334,17.035s-6.012,6.012-10.355,8.017c-4.342,2.004-6.012,3.674-3.674,4.676
			c2.338,1.002,6.68,2.004,14.029,1.002c7.349-1.002,13.695-1.002,14.697-3.674c1.002-2.672,0.668-9.687,0.668-9.687
			s1.67-32.066,1.67-47.431s-4.676-33.068-4.676-33.068l4.008-28.726c0,0,8.017-15.365,8.351-29.728
			c0.334-14.363-7.682-31.064-8.351-32.066c-0.668-1.002-28.726,2.004-28.726,2.004"/>
		<path style="fill:none;stroke:#FFFFFF;stroke-linecap:round;stroke-linejoin:round;stroke-miterlimit:10;" d="M556.114,294.25
			c0,0,1.002,4.008,5.678,6.346"/>
		<path style="fill:#FFFFFF;stroke:#263238;stroke-linecap:round;stroke-linejoin:round;stroke-miterlimit:10;" d="M569.141,430.532
			c-0.008-0.067-0.011-0.16-0.016-0.25c-7.056,3.388-14.014,0.918-14.014,0.918s0,0,0-1.336c0-1.336-1.002-4.342-1.002-4.342
			s-2.338,3.34-5.01,6.68c-2.672,3.34-9.353,5.344-10.355,8.017c-1.002,2.672,4.008,1.67,8.017,1.67s11.023-1.67,13.027-2.672
			c2.004-1.002,6.346-0.334,7.349-1.002C568.139,437.547,569.475,433.538,569.141,430.532z"/>
		<path style="fill:#FFFFFF;stroke:#263238;stroke-linecap:round;stroke-linejoin:round;stroke-miterlimit:10;" d="M587.512,444.561
			c0.772-2.059,0.751-6.686,0.701-8.705c-4.836,1.386-11.055,2.025-11.055,2.025s0,0-1.002-2.338
			c-1.002-2.338-3.34-1.002-3.34-1.002s-6.012,6.012-10.355,8.017c-4.342,2.004-6.012,3.674-3.674,4.676
			c2.338,1.002,6.68,2.004,14.029,1.002C580.164,447.233,586.51,447.233,587.512,444.561z"/>
		<path style="fill:#FFFFFF;stroke:#263238;stroke-linecap:round;stroke-linejoin:round;stroke-miterlimit:10;" d="M561.057,193.792
			c0,0-14.493,17.67-14.89,21.839c-0.397,4.169,3.177,50.826,3.772,51.223s7.942,2.184,10.721,2.184
			c2.779,0,6.155-0.397,6.155-0.397s-1.588-46.061-0.397-55.789c1.191-9.728,9.133-18.464,10.721-22.633
			c1.588-4.169-4.765-4.368-6.552-3.772C568.8,187.041,561.057,193.792,561.057,193.792z"/>
		<g>
			<path style="fill:#FFFFFF;stroke:#263238;stroke-linecap:round;stroke-linejoin:round;stroke-miterlimit:10;" d="
				M553.513,141.775c0,0-6.552,9.133-6.155,11.714c0.397,2.581,0.794,4.566,0,5.956c-0.794,1.39-5.162,2.779-4.765,4.963
				c0.397,2.184,3.971,3.971,3.971,3.971s1.985,11.118,4.169,12.309c2.184,1.191,7.942-0.397,7.942-0.397l1.39,10.324
				c0,0-5.559,8.537-1.787,8.736c3.772,0.199,20.449-13.302,20.449-13.302l-1.588-5.956c0,0,3.574-7.941,3.772-15.883
				c0.199-7.942-7.346-21.045-13.302-23.825C561.653,137.605,557.086,139.193,553.513,141.775z"/>
			<polygon style="fill:#263238;stroke:#263238;stroke-linecap:round;stroke-linejoin:round;stroke-miterlimit:10;" points="
				558.675,180.291 564.035,179.1 559.667,186.049 			"/>
			<path style="fill:none;stroke:#263238;stroke-linecap:round;stroke-linejoin:round;stroke-miterlimit:10;" d="M549.939,168.577
				c0,0,3.375,1.191,6.155-2.581"/>
			<path style="fill:#263238;" d="M554.307,158.055c0,1.096-0.489,1.985-1.092,1.985c-0.603,0-1.092-0.889-1.092-1.985
				s0.489-1.985,1.092-1.985C553.818,156.069,554.307,156.958,554.307,158.055z"/>
			<path style="fill:none;stroke:#263238;stroke-linecap:round;stroke-linejoin:round;stroke-miterlimit:10;" d="M550.733,153.29
				c0,0,3.375-2.78,5.162,0.596"/>
		</g>
		<path style="fill:#263238;stroke:#263238;stroke-linecap:round;stroke-linejoin:round;stroke-miterlimit:10;" d="M555.101,141.973
			c0,0,5.162,7.941,8.934,12.905c3.772,4.963,7.743,11.714,6.552,15.288c-1.191,3.574-5.361,2.184-4.169,4.566
			c1.191,2.382,8.14,5.956,12.508,5.559c4.368-0.397,8.736-5.559,12.111-10.523c3.375-4.964,8.339-14.096,2.383-25.214
			c-5.956-11.118-14.493-16.28-23.03-16.677c-8.537-0.397-22.832,2.581-24.222,8.537c-1.39,5.956,4.169,10.324,4.169,10.324
			L555.101,141.973z"/>
		<path style="fill:#92E3A9;stroke:#263238;stroke-linecap:round;stroke-linejoin:round;stroke-miterlimit:10;" d="M569.197,192.005
			c0,0-15.883,22.832-16.677,28.987c-0.794,6.155,3.772,49.238,3.772,49.238s10.324,1.39,20.251,0
			c9.927-1.39,19.655-6.155,19.655-6.155s-5.559-23.229-5.559-26.803s1.39-27.994-2.184-35.737
			c-3.574-7.743-9.728-15.486-9.728-15.486s-1.191-0.199-1.787-0.199C576.345,185.85,572.573,188.431,569.197,192.005z"/>
		<g>
			<path style="fill:#FFFFFF;stroke:#263238;stroke-linecap:round;stroke-linejoin:round;stroke-miterlimit:10;" d="
				M532.865,226.749l-5.162-2.779c0,0-1.787-5.361-2.779-6.949c-0.993-1.588-3.772-1.191-4.964-0.993
				c-1.191,0.199-4.765-0.794-6.949-1.787c-2.184-0.993-3.177,0.199-2.382,1.39c0.794,1.191,2.581,2.581,2.581,2.581
				s-9.133,0.397-9.728,0.397s-4.169-0.993-3.375,1.588c0.794,2.581,7.544,7.147,10.92,7.743c3.375,0.596,12.111,0.199,12.111,0.199
				l5.162,3.971L532.865,226.749z"/>
			<polyline style="fill:none;stroke:#263238;stroke-linecap:round;stroke-linejoin:round;stroke-miterlimit:10;" points="
				513.209,218.212 518.173,219.8 520.754,220.594 			"/>
			<path style="fill:none;stroke:#263238;stroke-linecap:round;stroke-linejoin:round;stroke-miterlimit:10;" d="M500.454,218.949
				c0,0,4.228,2.718,5.133,3.171c0.906,0.453,7.7,0.906,7.7,0.906"/>
			<path style="fill:none;stroke:#263238;stroke-linecap:round;stroke-linejoin:round;stroke-miterlimit:10;" d="M501.964,222.723
				c0,0,6.945,2.718,7.7,2.718c0.755,0,4.077-0.151,4.077-0.151"/>
		</g>
		<path style="fill:#92E3A9;stroke:#263238;stroke-linecap:round;stroke-linejoin:round;stroke-miterlimit:10;" d="M570.587,204.91
			l-13.501,33.95l-24.222-12.111l-6.949,8.736c0,0,28.59,22.038,30.773,23.031c2.184,0.993,6.155,1.39,6.949,0.794
			c0.794-0.596,22.633-37.127,22.633-37.127"/>
		<path style="fill:none;stroke:#FFFFFF;stroke-linecap:round;stroke-linejoin:round;stroke-miterlimit:10;" d="M564.913,301.943
			c0,0-2.051,38.098,0,52.751c2.052,14.653,5.568,36.633,5.568,36.633"/>
	</g>
</g>
<g id="Character_2">
	<g>
		<path style="fill:#263238;stroke:#263238;stroke-linecap:round;stroke-linejoin:round;stroke-miterlimit:10;" d="M429.173,268.604
			c0,0-2.409,42.7-2.863,50.681c-0.454,7.982,0.462,49.073,3.182,53.212c2.721,4.139,6.035,44.639,6.035,44.639
			s-2.415,0.887-2.499,2.365c-0.084,1.478-0.024,5.617-0.024,5.617s-8.056,6.504-12.591,8.277c-4.535,1.774-4.357,3.843-1.73,4.434
			c2.627,0.591,9.933,2.069,15.322,0.887c5.388-1.183,10.861-3.843,13.26-4.434c2.399-0.591,5.617,0,7.196-1.774
			c1.579-1.774,0.716-7.391,0.716-7.391s0.971-1.478,0.091-6.799c-0.88-5.321-1.911-7.982-1.827-9.46
			c0.084-1.478-0.166-49.073-0.166-49.073l0.086-53.507c0,0,4.415,52.325,5.447,54.985c1.031,2.661,8.729,44.047,9.203,46.117
			c0.473,2.069,0.577,10.642,0.577,10.642s-2.254,3.252-2.305,4.139c-0.05,0.887,1.058,7.391,1.058,7.391s-7.27,8.277-11.231,10.347
			c-3.961,2.069,0.601,5.025,4.427,5.321c3.826,0.296,8.244,0.591,13.683-1.478c5.439-2.069,12.658-9.46,14.237-11.233
			c1.579-1.774,0.548-4.434,0.04-5.913c-0.507-1.478-1.327-2.66-0.964-3.843c0.363-1.183,2.345-10.051,2.581-14.19
			c0.235-4.139,0.454-7.982,0.454-7.982s0.475-23.945-1.023-33.996c-1.498-10.051-4.89-28.38-4.89-28.38s-2.766-44.934-2.353-47.004
			c0.413-2.069,2.074-9.126,1.465-15.372c-0.608-6.246-1.515-9.756-1.515-9.756L429.173,268.604z"/>
		<g>
			<path style="fill:#FFFFFF;stroke:#263238;stroke-linecap:round;stroke-linejoin:round;stroke-miterlimit:10;" d="
				M452.109,185.977c0,0-23.471,7.636-23.511,9.398c-0.039,1.762-5.777,39.355-5.777,39.355l-28.681,19.598
				c0,0,4.05,2.741,4.777,5.286c0.726,2.545,0.726,2.545,0.726,2.545l30.023-9.612c0,0-1.508,14.881-0.751,16.055
				c0.757,1.175,5.234,2.35,5.234,2.35s26.789,1.566,35.609,1.175c8.82-0.392,12.553-0.979,13.175-2.545s1.001-0.979,1.054-3.329
				c0.053-2.349,16.13-73.229,16.157-74.403c0.026-1.175-0.717-2.937-2.266-3.72c-1.549-0.783-22.363-6.853-22.363-6.853
				L452.109,185.977z"/>
			<g>
				<polygon style="fill:#92E3A9;stroke:#263238;stroke-linecap:round;stroke-linejoin:round;stroke-miterlimit:10;" points="
					448.396,194.397 450.512,204.871 440.39,255.384 443.926,269.511 454.546,254.1 454.374,204.443 462.767,192.885 
					459.059,186.21 				"/>
				<g>
					<polygon style="fill:#263238;" points="441.193,251.379 451.674,258.267 454.546,254.1 454.538,251.773 442.676,243.978 					
						"/>
					<polygon style="fill:#263238;" points="447.18,221.499 445.581,229.479 454.488,237.5 454.456,228.051 					"/>
					<polygon style="fill:#263238;" points="449.177,198.262 450.512,204.871 449.835,208.251 454.402,212.343 454.375,204.443 
						455.045,203.52 					"/>
				</g>
			</g>
			
				<line style="fill:#FFFFFF;stroke:#263238;stroke-linecap:round;stroke-linejoin:round;stroke-miterlimit:10;" x1="433.696" y1="212.676" x2="434.187" y2="208.103"/>
			
				<line style="fill:#FFFFFF;stroke:#263238;stroke-linecap:round;stroke-linejoin:round;stroke-miterlimit:10;" x1="429.732" y1="249.612" x2="433.15" y2="217.767"/>
		</g>
		<g>
			<polygon style="fill:#FFFFFF;stroke:#263238;stroke-linecap:round;stroke-linejoin:round;stroke-miterlimit:10;" points="
				451.22,199.928 444.869,185.782 453.211,180.495 			"/>
			<polygon style="fill:#FFFFFF;stroke:#263238;stroke-linecap:round;stroke-linejoin:round;stroke-miterlimit:10;" points="
				444.869,185.782 442.456,197.334 448.396,194.397 			"/>
		</g>
		<g>
			<path style="fill:#FFFFFF;stroke:#263238;stroke-linecap:round;stroke-linejoin:round;stroke-miterlimit:10;" d="M451.92,132.684
				c0,0-6.693,22.594-7.173,32.008c-0.48,9.414,2.388,13.449,4.791,14.256l2.134,0.807l-0.452,20.173l7.222-10.221l0.616-3.497
				l14.025-13.718l3.158-8.876c0,0,5.355,1.076,7.078-3.766c1.722-4.842-0.369-7.531-0.369-7.531s7.162-7.531,4.677-16.676
				c-2.485-9.145-9.004-18.29-21.377-18.29S445.371,124.884,451.92,132.684z"/>
			<path style="fill:#263238;stroke:#263238;stroke-linecap:round;stroke-linejoin:round;stroke-miterlimit:10;" d="
				M487.628,135.643c-2.485-9.145-9.004-18.29-21.377-18.29s-20.88,7.531-14.33,15.331c0,0,4.225,3.497,7.196,2.959
				c2.971-0.538,4.902-2.69,9.952,0c5.05,2.69,5.54,4.841,3.848,8.338c-1.692,3.497-1.459,5.11-0.683,6.455
				c0.086,0.148,0.174,0.322,0.263,0.509l-4.85,12.133c0,0-1.542-3.228-7.937-5.917c-6.395-2.69-14.017,1.345-14.017,1.345
				c-5.006,21.742,5.979,21.249,5.979,21.249s12.965-2.421,16.809-5.917c3.844-3.497,4.436-5.917,4.79-9.683
				c0.21-2.236,0.197-7.224,0.152-10.906c0.344,0.965,0.591,1.761,0.591,1.761s1.13-2.421,3.838-3.228
				c2.708-0.807,5.099,0.538,5.099,0.538S490.112,144.788,487.628,135.643z"/>
			<path style="fill:none;stroke:#263238;stroke-linecap:round;stroke-linejoin:round;stroke-miterlimit:10;" d="M457.041,144.25
				l-2.302,6.724c0,0-7.634,4.573-6.032,5.11c1.602,0.538,7.017-1.076,7.017-1.076"/>
			<path style="fill:none;stroke:#FFFFFF;stroke-linecap:round;stroke-linejoin:round;stroke-miterlimit:10;" d="M448.561,162.54
				c0,0,3.155,3.228,9.163-0.807"/>
			<path style="fill:#263238;" d="M462.214,150.207c-0.18,0.936-0.819,1.611-1.429,1.507c-0.61-0.104-0.958-0.947-0.779-1.883
				c0.18-0.936,0.819-1.611,1.429-1.507C462.045,148.428,462.394,149.271,462.214,150.207z"/>
			<path style="fill:#263238;" d="M452.723,148.885c-0.18,0.936-0.819,1.611-1.429,1.507c-0.61-0.104-0.958-0.947-0.779-1.883
				c0.18-0.936,0.819-1.611,1.429-1.507C452.554,147.106,452.903,147.948,452.723,148.885z"/>
			<path style="fill:none;stroke:#263238;stroke-linecap:round;stroke-linejoin:round;stroke-miterlimit:10;" d="M450.551,143.275
				c0,0,2.01-1.19,4.892,0"/>
			<path style="fill:none;stroke:#263238;stroke-linecap:round;stroke-linejoin:round;stroke-miterlimit:10;" d="M460.718,143.936
				c0,0,3.182-0.397,5.5,2.38"/>
		</g>
		<polygon style="fill:#FFFFFF;stroke:#263238;stroke-linecap:round;stroke-linejoin:round;stroke-miterlimit:10;" points="
			458.443,189.706 460.852,197.725 478.286,179.908 473.084,172.492 459.059,186.21 		"/>
		<g>
			<path style="fill:#FFFFFF;stroke:#263238;stroke-linecap:round;stroke-linejoin:round;stroke-miterlimit:10;" d="
				M408.934,269.034c0,0-3.755-1.97-2.06-2.252c1.695-0.281,4.625,0.844,4.625,0.844s-3.599-2.674-1.773-2.533
				c1.826,0.141,4.731,2.392,4.731,2.392s-0.931-2.392,0.882-1.689c1.814,0.704,2.773,1.829,2.773,1.829s-2.024,2.392-3.718,2.674
				c-1.695,0.281-1.279,0.563-2.395,0.141C410.882,270.019,408.934,269.034,408.934,269.034z"/>
			<path style="fill:#FFFFFF;stroke:#263238;stroke-linecap:round;stroke-linejoin:round;stroke-miterlimit:10;" d="
				M434.669,256.465c0,0-9.615,0.003-11.025,1.156c-1.41,1.153-3.322,4.151-4.024,4.613c-0.702,0.461-8.318,0.692-8.124,2.306
				c0.194,1.615,4.802,1.845,4.802,1.845l-3.307,3.46c0,0-7.093-2.537-7.585-1.153c-0.492,1.384,7.513,4.382,9.358,4.382
				s5.561-1.153,6.269-1.845c0.707-0.692,8.297-7.585,8.297-7.585c0.331,0.762,5.847-0.524,6.084-1.329
				C435.621,261.61,434.669,256.465,434.669,256.465z"/>
			<path style="fill:none;stroke:#263238;stroke-linecap:round;stroke-linejoin:round;stroke-miterlimit:10;" d="M416.298,266.385
				c0,0,4.225,0.397,5.92,0.116c1.695-0.281,3.719-2.674,3.719-2.674"/>
		</g>
		<g>
			<path style="fill:#FFFFFF;stroke:#263238;stroke-linecap:round;stroke-linejoin:round;stroke-miterlimit:10;" d="M481.497,202.62
				l-9.262,37.593l-37.566,16.251l0.99,8.224c0,0,32.277-3.683,40.153-5.641c7.876-1.958,17.593-7.44,18.864-11.748
				c1.271-4.308,7.702-50.357,7.586-53.882c-0.117-3.524-0.5-3.916-2.044-4.895c-1.544-0.979-13.048-3.133-13.048-3.133"/>
			
				<line style="fill:none;stroke:#263238;stroke-linecap:round;stroke-linejoin:round;stroke-miterlimit:10;" x1="440.396" y1="254.311" x2="441.773" y2="262.73"/>
		</g>
		<path style="fill:none;stroke:#263238;stroke-linecap:round;stroke-linejoin:round;stroke-miterlimit:10;" d="M397.914,251.98
			c0,0,6.244,0.979,5.507,7.636"/>
		<g>
			<path style="fill:none;stroke:#263238;stroke-linecap:round;stroke-linejoin:round;stroke-miterlimit:10;" d="M394.141,254.329
				l-5.287,2.553c0,0-3.439-0.923-4.361-0.923c-0.923,0-2.102,1.153-4.843,0c-2.742-1.153-5.012-2.768-5.059-0.692
				c-0.047,2.076,1.301,3.69,2.675,4.151c1.374,0.461,2.972,1.153,2.972,1.153l-8.73,8.764c0,0-4.48,4.382-3.343,5.074
				s11.337-1.615,12.962-2.076c1.625-0.461,10.933-4.151,12.358-5.996c1.425-1.845,2.143-2.998,2.143-2.998l4.016-1.179
				C399.643,262.161,398.633,256.389,394.141,254.329z"/>
			<path style="fill:none;stroke:#263238;stroke-linecap:round;stroke-linejoin:round;stroke-miterlimit:10;" d="M390.313,263.801
				c0,0-4.597-0.692-6.463,0.231c-1.866,0.923-4.496,5.074-4.496,5.074s-6.038,1.845-7.453,3.229"/>
		</g>
	</g>
</g>
<g id="Character_1">
	
		<line style="fill:none;stroke:#263238;stroke-linecap:round;stroke-linejoin:round;stroke-miterlimit:10;" x1="719.965" y1="436.852" x2="18.126" y2="436.852"/>
	<g>
		<g>
			<path style="fill:#FFFFFF;stroke:#263238;stroke-linecap:round;stroke-linejoin:round;stroke-miterlimit:10;" d="
				M167.953,294.612c0,0,0.872,6.011,1.66,7.849c0.788,1.838,1.575,4.463,0.525,6.301c-1.05,1.838-9.487,5.597-9.487,5.597
				l-0.227-23.45l7.118-1.13L167.953,294.612z"/>
			<path style="fill:#FFFFFF;stroke:#263238;stroke-linecap:round;stroke-linejoin:round;stroke-miterlimit:10;" d="
				M165.896,300.165c0,0-0.221,2.557-0.747,5.445s-0.628,6.233-3.779,5.971"/>
		</g>
		<polygon style="fill:#FFFFFF;stroke:#263238;stroke-linecap:round;stroke-linejoin:round;stroke-miterlimit:10;" points="
			159.111,190.878 164.362,248.376 168.037,291.958 159.378,292.217 154.91,253.364 		"/>
		<path style="fill:#263238;stroke:#263238;stroke-linecap:round;stroke-linejoin:round;stroke-miterlimit:10;" d="M103.054,258.554
			c0,0-2.545,22.413-2.026,25.294c0.519,2.882,2.278,67.558,2.278,67.558s-3.839,22.733-3.694,26.895
			c0.145,4.162,1.419,49.948,1.419,49.948s-2.605,8.645-3.006,10.566c-0.401,1.921,0.118,4.803,1.372,5.443
			c1.254,0.64,9.538,1.601,13.087,0.961c3.549-0.64,7.738-1.281,8.567-5.763c0.829-4.482-1.783-10.886-1.382-12.807
			c0.401-1.921,0.87-5.443,0.964-7.684c0.094-2.241,0.175-4.162,0.175-4.162s6.582-42.264,6.636-43.544s3.98-41.303,3.98-41.303
			s-0.452,56.351-0.829,65.316s-1.756,18.891-1.81,20.171s-1.355,16.97-1.089,18.25c0.266,1.281,2.467,2.241,4.375,2.561
			c1.908,0.32,7.044,0,8.004,0c0.961,0,7.937,1.601,12.42,1.601s9.632-0.64,8.793-3.522s-8.082-5.763-10.269-7.044
			s-5.066-8.965-5.066-8.965s2.177-6.083,2.312-9.285c0.135-3.202,9.801-50.268,11.314-63.395
			c1.513-13.127,0.192-73.001,0.192-73.001l1.182-13.764C160.956,258.878,123.236,265.918,103.054,258.554z"/>
		<g>
			<path style="fill:#FFFFFF;stroke:#263238;stroke-linecap:round;stroke-linejoin:round;stroke-miterlimit:10;" d="
				M112.903,173.813c0,0-12.602,10.239-18.378,13.39c-5.776,3.15-12.34,7.351-12.34,7.351s-7.614,64.324-6.826,66.687
				c0.788,2.363,3.938,36.231,3.938,36.231l11.552-0.525l2.888-41.22l6.039-19.953l0.788,23.629c0,0-0.525,3.413,2.363,4.726
				s28.092,3.676,40.695,2.888c12.602-0.788,16.54-5.513,17.065-8.139c0.525-2.625,1.31-48.726,1.572-53.714
				c0.263-4.988-2.328-18.02-8.562-25.298c-1.708-1.994-20.84-5.527-20.84-5.527S119.729,170.137,112.903,173.813z"/>
			<g>
				<path style="fill:#92E3A9;stroke:#263238;stroke-linecap:round;stroke-linejoin:round;stroke-miterlimit:10;" d="
					M129.33,186.088l7.12,9.632l-2.513,58.631c0,0,5.444,7.119,6.282,8.376s7.538-10.051,7.538-10.051l-7.957-56.119l3.35-10.051
					l-1.9-5.88l-9.408-2.914L129.33,186.088z"/>
				<g>
					<polygon style="fill:#263238;" points="135.419,219.766 142.449,215.243 141.24,206.714 135.829,210.195 					"/>
					<polygon style="fill:#263238;" points="136.449,195.72 136.299,199.227 139.842,196.854 139.8,196.558 143.15,186.507 
						142.808,185.447 133.476,191.697 					"/>
					<path style="fill:#263238;" d="M147.757,252.676l-0.959-6.763l-12.766,6.204l-0.096,2.234c0,0,1.889,2.47,3.613,4.758
						l8.934-4.342C147.243,253.543,147.757,252.676,147.757,252.676z"/>
					<polygon style="fill:#263238;" points="134.897,231.932 134.482,241.614 145.177,234.484 143.959,225.891 					"/>
				</g>
			</g>
			
				<line style="fill:none;stroke:#263238;stroke-linecap:round;stroke-linejoin:round;stroke-miterlimit:10;" x1="99.776" y1="235.774" x2="109.49" y2="214.245"/>
		</g>
		<polygon style="fill:#FFFFFF;stroke:#263238;stroke-linecap:round;stroke-linejoin:round;stroke-miterlimit:10;" points="
			138.153,189.616 143.424,173.803 136.396,170.289 		"/>
		<polygon style="fill:#FFFFFF;stroke:#263238;stroke-linecap:round;stroke-linejoin:round;stroke-miterlimit:10;" points="
			143.424,173.803 150.452,182.368 141.25,180.626 		"/>
		<g>
			<path style="fill:#FFFFFF;stroke:#263238;stroke-linecap:round;stroke-linejoin:round;stroke-miterlimit:10;" d="
				M135.298,124.168c0,0,2.416,10.103,5.051,16.033c2.636,5.93,3.294,9.663,2.416,15.593c-0.879,5.93-0.879,8.565-2.196,9.224
				c-1.318,0.659-4.832,1.318-4.832,1.318l2.416,23.28l-5.491-7.687l-17.79-16.911l-9.663-25.696c0,0-5.051-6.15,1.537-13.836
				C113.336,117.799,130.906,118.677,135.298,124.168z"/>
			<path style="fill:#263238;stroke:#263238;stroke-linecap:round;stroke-linejoin:round;stroke-miterlimit:10;" d="
				M107.626,147.009l3.075-1.318c0,0-2.636-2.196-1.757-5.491c0.879-3.294,9.883-5.271,8.785-7.906
				c-1.098-2.635-11.421-3.075-4.612-6.149c6.808-3.075,18.888,1.098,22.841,1.537c3.953,0.439,0.22-8.126,0.22-8.126
				s7.028-1.318,1.537-6.369c-5.491-5.051-28.112-1.977-34.481,4.832c-6.369,6.808-5.051,12.299-3.075,16.033
				c1.977,3.734,5.491,12.519,5.491,12.519L107.626,147.009z"/>
			<path style="fill:#FFFFFF;stroke:#263238;stroke-linecap:round;stroke-linejoin:round;stroke-miterlimit:10;" d="M110.7,148.327
				c0,0-4.393-4.612-6.808-2.416c-2.416,2.196,1.098,7.687,3.953,9.663c2.855,1.977,5.491-0.439,5.491-0.439"/>
			<path style="fill:none;stroke:#263238;stroke-linecap:round;stroke-linejoin:round;stroke-miterlimit:10;" d="M135.298,132.514
				c0,0-2.196-1.757-3.294,0.659c-1.098,2.416-0.439,5.051-0.439,5.051l7.028,10.542l-6.808,1.537"/>
			<path style="fill:none;stroke:#263238;stroke-linecap:round;stroke-linejoin:round;stroke-miterlimit:10;" d="M134.2,154.476
				c0,0-4.612,1.977-9.224-1.757"/>
			<path style="fill:none;stroke:#263238;stroke-linecap:round;stroke-linejoin:round;stroke-miterlimit:10;" d="M126.074,134.49
				c0,0-5.71-2.196-8.565,3.075"/>
			<ellipse style="fill:#263238;" cx="125.525" cy="141.518" rx="1.428" ry="2.196"/>
			<path style="fill:#263238;" d="M137.934,138.663c0,1.213-0.639,2.196-1.428,2.196c-0.788,0-1.428-0.983-1.428-2.196
				c0-1.213,0.639-2.196,1.428-2.196C137.295,136.467,137.934,137.45,137.934,138.663z"/>
			<polygon style="fill:#263238;stroke:#263238;stroke-miterlimit:10;" points="135.738,166.336 125.635,165.457 136.836,179.952 
							"/>
		</g>
		<polygon style="fill:#FFFFFF;stroke:#263238;stroke-linecap:round;stroke-linejoin:round;stroke-miterlimit:10;" points="
			114.873,165.018 110.261,173.144 124.756,194.008 132.663,181.929 		"/>
		<g>
			<path style="fill:none;stroke:#263238;stroke-width:4;stroke-linecap:round;stroke-linejoin:round;stroke-miterlimit:10;" d="
				M98.994,322.97H75.48v-9.978c0-2.374,1.925-4.299,4.299-4.299h14.917c2.374,0,4.299,1.924,4.299,4.299V322.97z"/>
			<path style="fill:#636363;stroke:#263238;stroke-linecap:round;stroke-linejoin:round;stroke-miterlimit:10;" d="
				M116.509,367.281H57.322c-3.157,0-5.715-2.559-5.715-5.715v-35.742c0-3.156,2.559-5.715,5.715-5.715h59.187
				c3.157,0,5.715,2.559,5.715,5.715v35.742C122.224,364.722,119.666,367.281,116.509,367.281z"/>
		</g>
		<path style="fill:#FFFFFF;stroke:#263238;stroke-linecap:round;stroke-linejoin:round;stroke-miterlimit:10;" d="M90.849,296.947
			c0,0,1.838,2.888,3.676,5.513c1.838,2.625,5.251,3.938,4.988,5.251c-0.262,1.313-1.838,2.1-2.888,1.838
			c-1.05-0.263-5.251-3.676-5.251-3.676l0.788,6.826c0,0,1.05,2.363-0.788,3.151c-1.838,0.788-4.463,0.788-4.988,0
			c-0.525-0.788-1.05-2.1-1.05-2.1s-4.463,0-5.776-0.788c-1.313-0.788-2.888-2.1-2.626-5.513c0.263-3.413,2.363-9.977,2.363-9.977
			L90.849,296.947z"/>
	</g>
</g>
<g id="Device">
	<g>
		
			<rect x="253.862" y="281.166" style="fill:#FFFFFF;stroke:#263238;stroke-linecap:round;stroke-linejoin:round;stroke-miterlimit:10;" width="26.049" height="9.768"/>
		<path style="fill:#263238;stroke:#263238;stroke-linecap:round;stroke-linejoin:round;stroke-miterlimit:10;" d="M317.299,285.723
			H216.474c-2.282,0-4.133-1.85-4.133-4.133v-70.555c0-2.282,1.85-4.133,4.133-4.133h100.826c2.282,0,4.133,1.85,4.133,4.133v70.555
			C321.432,283.873,319.582,285.723,317.299,285.723z"/>
		<path style="fill:#FFFFFF;stroke:#263238;stroke-linecap:round;stroke-linejoin:round;stroke-miterlimit:10;" d="M212.341,273.026
			v8.565c0,2.282,1.85,4.133,4.133,4.133h100.826c2.282,0,4.133-1.85,4.133-4.133v-8.565H212.341z"/>
	</g>
</g>
<g id="Seat">
	<g>
		<g>
			<g>
				<path style="fill:#263238;stroke:#263238;stroke-miterlimit:10;" d="M391.566,207.286l-33.471,0.277
					c0,0-2.213-0.277-2.766,1.383c0,0-5.809,14.661-6.086,19.917c-0.277,5.256,1.107,4.426-1.107,11.342
					c-2.213,6.915-8.575,23.236-12.172,36.515c-4.833,17.846-6.093,36.786-6.399,55.206c-0.049,2.956-1.816,28.389,2.785,28.389
					c3.818,0,39.034,4.667,39.459-2.122c1.691-27.059-3.196-53.499,6.203-79.816c3.65-10.22,7.836-21.015,10.933-31.707
					c3.109-10.736,3.639-21.804,5.664-32.745C395.992,206.456,391.566,207.286,391.566,207.286z"/>
				<path style="fill:#BABABA;stroke:#263238;stroke-linecap:round;stroke-linejoin:round;stroke-miterlimit:10;" d="M394.844,210.6
					c-0.33-3.863-3.278-3.314-3.278-3.314l-33.471,0.277c0,0-2.213-0.277-2.766,1.383c0,0-5.809,14.661-6.086,19.917
					c-0.107,2.032,0.034,3.154,0.119,4.166l0.711,1.09c0,0,1.106,9.682,14.384,10.235c13.278,0.553,20.747-5.532,23.513-11.341
					c2.766-5.809,3.873-15.214,6.086-20.747C394.278,211.71,394.552,211.154,394.844,210.6z"/>
			</g>
			<path style="fill:#BABABA;stroke:#263238;stroke-linecap:round;stroke-linejoin:round;stroke-miterlimit:10;" d="
				M387.085,221.405c-2.245,8.081-0.898,10.326-3.143,24.243c-2.245,13.917-10.326,29.631-13.469,43.997
				c-3.143,14.366-1.796,65.097-1.347,67.342c0.171,0.855,0.211,2.231,0.196,3.607c1.507-0.563,2.42-1.342,2.486-2.401
				c1.691-27.059-3.196-53.499,6.203-79.817c3.65-10.22,7.837-21.015,10.933-31.707c3.109-10.736,3.638-21.804,5.664-32.745
				c0.85-4.589-0.493-6.041-1.655-6.481l-0.033,0.044C392.921,207.487,389.329,213.323,387.085,221.405z"/>
		</g>
		<path style="fill:#263238;stroke:#263238;stroke-miterlimit:10;" d="M322.436,425.675l-0.224-0.18v-31.247h4.49v-19.754H310.09
			v19.754h4.489v31.784l-39.732,12.662v3.143c0,1.984,1.608,3.592,3.592,3.592c1.984,0,3.592-1.608,3.592-3.592v-0.449l33.222-3.863
			v4.761c0,1.736,1.407,3.143,3.142,3.143c1.736,0,3.143-1.407,3.143-3.143v-4.917l34.569,4.02v0.449
			c0,1.984,1.608,3.592,3.591,3.592c1.984,0,3.592-1.608,3.592-3.592v-3.143L322.436,425.675z"/>
		<path style="fill:#263238;stroke:#263238;stroke-miterlimit:10;" d="M370.354,378.134h-99.769c-2.209,0-4-1.791-4-4v-14.912
			c0-2.209,1.791-4,4-4h99.769c2.209,0,4,1.791,4,4v14.912C374.354,376.344,372.564,378.134,370.354,378.134z"/>
	</g>
</g>
<g id="Table">
	<g>
		<polygon style="fill:#263238;stroke:#263238;stroke-miterlimit:10;" points="222.823,443.814 218.348,443.814 215.436,313.324 
			226.736,313.324 		"/>
		<polygon style="fill:#263238;stroke:#263238;stroke-miterlimit:10;" points="444.108,443.814 439.633,443.814 436.721,313.324 
			448.021,313.324 		"/>
		<g>
			<polygon style="fill:#FFFFFF;stroke:#263238;stroke-linecap:round;stroke-linejoin:round;stroke-miterlimit:10;" points="
				192.407,293.14 196.257,448.429 200.891,448.429 204.741,319.668 466.107,319.668 469.459,448.429 476.472,448.429 
				477.975,293.14 			"/>
		</g>
		<rect x="192.535" y="296.868" style="fill:#757575;stroke:#263238;stroke-miterlimit:10;" width="285.228" height="4.296"/>
		
			<rect x="186.391" y="290.594" style="fill:#FFFFFF;stroke:#263238;stroke-linecap:round;stroke-linejoin:round;stroke-miterlimit:10;" width="293.59" height="6.789"/>
	</g>
</g>
</svg>
