<svg width="32" height="32" viewBox="0 0 32 32" fill="none" xmlns="http://www.w3.org/2000/svg">
<path d="M21.2933 18.6559C20.9145 20.9949 18.993 22.4491 16.278 22.4491C12.851 22.4491 10.637 19.961 10.637 16.1115C10.637 12.4768 12.8174 10.2176 16.3284 10.2176C18.8108 10.2176 20.6712 11.5743 21.0668 13.6739L21.1135 13.9204H25.7788L25.7332 13.58C25.1243 8.97823 21.3844 5.88692 16.4327 5.88692L16.2816 5.88574C13.4336 5.88574 10.8204 6.92205 8.92292 8.80454C6.99184 10.7199 5.94899 13.3594 5.98735 16.2312C5.94899 19.1934 7.01462 21.9021 8.98645 23.8574C10.8876 25.7422 13.4959 26.7797 16.3344 26.7797L16.4806 26.7785C21.3149 26.7785 25.213 23.4771 25.9598 18.7486L26.0149 18.4012H21.3341L21.2933 18.6559Z" fill="white"/>
<path d="M16 31.9998C7.1777 31.9998 0 24.971 0 16.332C0 7.69415 7.1777 0.666504 16 0.666504C24.8235 0.666504 32 7.69415 32 16.332C32.0012 24.971 24.8235 31.9998 16 31.9998ZM16 3.68271C8.87624 3.68271 3.08061 9.35717 3.08061 16.332C3.08061 23.308 8.87744 28.9825 16.0012 28.9825C23.125 28.9825 28.9218 23.3068 28.9218 16.332C28.9206 9.35717 23.1238 3.68271 16 3.68271Z" fill="white"/>
</svg>
